<mxfile host="app.diagrams.net" modified="2020-09-18T02:57:45.818Z" agent="5.0 (Windows NT 10.0; Win64; x64) AppleWebKit/537.36 (KHTML, like Gecko) Chrome/84.0.4147.135 Safari/537.36" etag="9Uz6BF8ZSxr_bfIgdEUt" compressed="false" version="13.7.3" type="github">
  <diagram id="Xkr1ojVR8jTouUEQAdM9" name="Page-1">
    <mxGraphModel dx="1053" dy="1667" grid="1" gridSize="10" guides="1" tooltips="1" connect="1" arrows="1" fold="1" page="1" pageScale="1" pageWidth="850" pageHeight="1100" background="none" math="0" shadow="0">
      <root>
        <mxCell id="0" />
        <mxCell id="1" parent="0" />
        <mxCell id="yJipTLfowuC2AWkGN2Az-1" value="Student Admission" style="rounded=0;whiteSpace=wrap;html=1;" parent="1" vertex="1">
          <mxGeometry x="20" y="-1000" width="120" height="50" as="geometry" />
        </mxCell>
        <mxCell id="yJipTLfowuC2AWkGN2Az-3" value="" style="endArrow=classic;html=1;exitX=0.5;exitY=1;exitDx=0;exitDy=0;" parent="1" source="yJipTLfowuC2AWkGN2Az-1" edge="1">
          <mxGeometry width="50" height="50" relative="1" as="geometry">
            <mxPoint x="80" y="-890" as="sourcePoint" />
            <mxPoint x="120" y="-910" as="targetPoint" />
            <Array as="points">
              <mxPoint x="80" y="-910" />
            </Array>
          </mxGeometry>
        </mxCell>
        <mxCell id="yJipTLfowuC2AWkGN2Az-4" value="Application Entry" style="rounded=0;whiteSpace=wrap;html=1;" parent="1" vertex="1">
          <mxGeometry x="120" y="-930" width="120" height="50" as="geometry" />
        </mxCell>
        <mxCell id="yJipTLfowuC2AWkGN2Az-5" value="" style="endArrow=classic;html=1;exitX=0.5;exitY=1;exitDx=0;exitDy=0;" parent="1" edge="1">
          <mxGeometry width="50" height="50" relative="1" as="geometry">
            <mxPoint x="180" y="-880" as="sourcePoint" />
            <mxPoint x="220" y="-840" as="targetPoint" />
            <Array as="points">
              <mxPoint x="180" y="-840" />
            </Array>
          </mxGeometry>
        </mxCell>
        <mxCell id="yJipTLfowuC2AWkGN2Az-7" value="Add Application" style="rounded=0;whiteSpace=wrap;html=1;" parent="1" vertex="1">
          <mxGeometry x="220" y="-860" width="120" height="50" as="geometry" />
        </mxCell>
        <mxCell id="yJipTLfowuC2AWkGN2Az-8" value="" style="endArrow=classic;html=1;exitX=0.5;exitY=1;exitDx=0;exitDy=0;" parent="1" edge="1">
          <mxGeometry width="50" height="50" relative="1" as="geometry">
            <mxPoint x="280" y="-810" as="sourcePoint" />
            <mxPoint x="320" y="-770" as="targetPoint" />
            <Array as="points">
              <mxPoint x="280" y="-770" />
            </Array>
          </mxGeometry>
        </mxCell>
        <mxCell id="yJipTLfowuC2AWkGN2Az-23" value="" style="endArrow=classic;html=1;" parent="1" edge="1">
          <mxGeometry width="50" height="50" relative="1" as="geometry">
            <mxPoint x="420" y="-800" as="sourcePoint" />
            <mxPoint x="640" y="-1010" as="targetPoint" />
            <Array as="points">
              <mxPoint x="420" y="-1040" />
              <mxPoint x="640" y="-1040" />
            </Array>
          </mxGeometry>
        </mxCell>
        <mxCell id="yJipTLfowuC2AWkGN2Az-25" value="" style="endArrow=classic;html=1;" parent="1" edge="1">
          <mxGeometry width="50" height="50" relative="1" as="geometry">
            <mxPoint x="620" y="-1040" as="sourcePoint" />
            <mxPoint x="810" y="-1000" as="targetPoint" />
            <Array as="points">
              <mxPoint x="810" y="-1040" />
            </Array>
          </mxGeometry>
        </mxCell>
        <mxCell id="yJipTLfowuC2AWkGN2Az-30" value="" style="endArrow=classic;html=1;" parent="1" edge="1">
          <mxGeometry width="50" height="50" relative="1" as="geometry">
            <mxPoint x="800" y="-1040" as="sourcePoint" />
            <mxPoint x="990" y="-1000" as="targetPoint" />
            <Array as="points">
              <mxPoint x="990" y="-1040" />
            </Array>
          </mxGeometry>
        </mxCell>
        <mxCell id="yJipTLfowuC2AWkGN2Az-39" value="" style="endArrow=classic;html=1;" parent="1" edge="1">
          <mxGeometry width="50" height="50" relative="1" as="geometry">
            <mxPoint x="580" y="-550" as="sourcePoint" />
            <mxPoint x="610" y="-530" as="targetPoint" />
            <Array as="points">
              <mxPoint x="580" y="-530" />
            </Array>
          </mxGeometry>
        </mxCell>
        <mxCell id="yJipTLfowuC2AWkGN2Az-51" value="+ Gender: String" style="text;strokeColor=none;fillColor=none;align=left;verticalAlign=top;spacingLeft=4;spacingRight=4;overflow=hidden;rotatable=0;points=[[0,0.5],[1,0.5]];portConstraint=eastwest;" parent="1" vertex="1">
          <mxGeometry x="560" y="-790" width="160" height="26" as="geometry" />
        </mxCell>
        <mxCell id="yJipTLfowuC2AWkGN2Az-68" value="" style="endArrow=classic;html=1;entryX=-0.036;entryY=0.067;entryDx=0;entryDy=0;entryPerimeter=0;" parent="1" target="yJipTLfowuC2AWkGN2Az-74" edge="1">
          <mxGeometry width="50" height="50" relative="1" as="geometry">
            <mxPoint x="580" y="-534" as="sourcePoint" />
            <mxPoint x="610" y="-374" as="targetPoint" />
            <Array as="points">
              <mxPoint x="580" y="-400" />
            </Array>
          </mxGeometry>
        </mxCell>
        <mxCell id="BVpUQjcPfSpx3a0FSW65-1" value="" style="endArrow=classic;html=1;entryX=0;entryY=0.5;entryDx=0;entryDy=0;" edge="1" parent="1" target="BVpUQjcPfSpx3a0FSW65-2">
          <mxGeometry width="50" height="50" relative="1" as="geometry">
            <mxPoint x="180" y="-850" as="sourcePoint" />
            <mxPoint x="220" y="-560" as="targetPoint" />
            <Array as="points">
              <mxPoint x="180" y="-105" />
            </Array>
          </mxGeometry>
        </mxCell>
        <mxCell id="BVpUQjcPfSpx3a0FSW65-2" value="Academic Informaion" style="rounded=0;whiteSpace=wrap;html=1;" vertex="1" parent="1">
          <mxGeometry x="220" y="-130" width="120" height="50" as="geometry" />
        </mxCell>
        <mxCell id="BVpUQjcPfSpx3a0FSW65-8" value="" style="endArrow=classic;html=1;exitX=0.5;exitY=1;exitDx=0;exitDy=0;" edge="1" parent="1">
          <mxGeometry width="50" height="50" relative="1" as="geometry">
            <mxPoint x="280" y="-80" as="sourcePoint" />
            <mxPoint x="320" y="-40" as="targetPoint" />
            <Array as="points">
              <mxPoint x="280" y="-40" />
            </Array>
          </mxGeometry>
        </mxCell>
        <mxCell id="BVpUQjcPfSpx3a0FSW65-14" value="" style="endArrow=classic;html=1;exitX=1;exitY=0.5;exitDx=0;exitDy=0;entryX=0.5;entryY=0;entryDx=0;entryDy=0;" edge="1" parent="1" source="BVpUQjcPfSpx3a0FSW65-5" target="BVpUQjcPfSpx3a0FSW65-9">
          <mxGeometry width="50" height="50" relative="1" as="geometry">
            <mxPoint x="510" y="40" as="sourcePoint" />
            <mxPoint x="560" y="-10" as="targetPoint" />
            <Array as="points">
              <mxPoint x="560" y="-5" />
              <mxPoint x="560" y="-120" />
              <mxPoint x="690" y="-120" />
            </Array>
          </mxGeometry>
        </mxCell>
        <mxCell id="BVpUQjcPfSpx3a0FSW65-15" value="" style="endArrow=classic;html=1;" edge="1" parent="1">
          <mxGeometry width="50" height="50" relative="1" as="geometry">
            <mxPoint x="530" y="20" as="sourcePoint" />
            <mxPoint x="580" y="-30" as="targetPoint" />
          </mxGeometry>
        </mxCell>
        <mxCell id="BVpUQjcPfSpx3a0FSW65-16" value="" style="endArrow=classic;html=1;entryX=0.556;entryY=0;entryDx=0;entryDy=0;entryPerimeter=0;" edge="1" parent="1" target="BVpUQjcPfSpx3a0FSW65-17">
          <mxGeometry width="50" height="50" relative="1" as="geometry">
            <mxPoint x="670" y="-120" as="sourcePoint" />
            <mxPoint x="940" y="-120" as="targetPoint" />
            <Array as="points">
              <mxPoint x="950" y="-120" />
            </Array>
          </mxGeometry>
        </mxCell>
        <mxCell id="BVpUQjcPfSpx3a0FSW65-35" value="Relationship" style="rounded=0;whiteSpace=wrap;html=1;" vertex="1" parent="1">
          <mxGeometry x="210" y="270" width="120" height="50" as="geometry" />
        </mxCell>
        <mxCell id="BVpUQjcPfSpx3a0FSW65-36" value="" style="endArrow=classic;html=1;exitX=0.5;exitY=1;exitDx=0;exitDy=0;" edge="1" parent="1">
          <mxGeometry width="50" height="50" relative="1" as="geometry">
            <mxPoint x="270" y="320" as="sourcePoint" />
            <mxPoint x="310" y="360" as="targetPoint" />
            <Array as="points">
              <mxPoint x="270" y="360" />
            </Array>
          </mxGeometry>
        </mxCell>
        <mxCell id="BVpUQjcPfSpx3a0FSW65-42" value="" style="endArrow=classic;html=1;entryX=0;entryY=0.5;entryDx=0;entryDy=0;" edge="1" parent="1" target="BVpUQjcPfSpx3a0FSW65-35">
          <mxGeometry width="50" height="50" relative="1" as="geometry">
            <mxPoint x="180" y="-110" as="sourcePoint" />
            <mxPoint x="200" y="270" as="targetPoint" />
            <Array as="points">
              <mxPoint x="180" y="295" />
            </Array>
          </mxGeometry>
        </mxCell>
        <mxCell id="BVpUQjcPfSpx3a0FSW65-43" value="" style="endArrow=classic;html=1;exitX=1.022;exitY=0.769;exitDx=0;exitDy=0;exitPerimeter=0;entryX=0.5;entryY=0;entryDx=0;entryDy=0;" edge="1" parent="1" source="BVpUQjcPfSpx3a0FSW65-38" target="BVpUQjcPfSpx3a0FSW65-44">
          <mxGeometry width="50" height="50" relative="1" as="geometry">
            <mxPoint x="490" y="420" as="sourcePoint" />
            <mxPoint x="540" y="376" as="targetPoint" />
            <Array as="points">
              <mxPoint x="540" y="376" />
              <mxPoint x="540" y="320" />
              <mxPoint x="660" y="320" />
            </Array>
          </mxGeometry>
        </mxCell>
        <mxCell id="BVpUQjcPfSpx3a0FSW65-53" value="" style="endArrow=classic;html=1;entryX=0.5;entryY=0;entryDx=0;entryDy=0;" edge="1" parent="1" target="BVpUQjcPfSpx3a0FSW65-54">
          <mxGeometry width="50" height="50" relative="1" as="geometry">
            <mxPoint x="650" y="320" as="sourcePoint" />
            <mxPoint x="850" y="320" as="targetPoint" />
            <Array as="points">
              <mxPoint x="850" y="320" />
            </Array>
          </mxGeometry>
        </mxCell>
        <mxCell id="BVpUQjcPfSpx3a0FSW65-62" value="" style="endArrow=classic;html=1;entryX=0;entryY=0.154;entryDx=0;entryDy=0;entryPerimeter=0;" edge="1" parent="1" target="BVpUQjcPfSpx3a0FSW65-64">
          <mxGeometry width="50" height="50" relative="1" as="geometry">
            <mxPoint x="830" y="440" as="sourcePoint" />
            <mxPoint x="830" y="460" as="targetPoint" />
            <Array as="points">
              <mxPoint x="830" y="490" />
            </Array>
          </mxGeometry>
        </mxCell>
        <mxCell id="BVpUQjcPfSpx3a0FSW65-72" value="" style="endArrow=classic;html=1;entryX=0.5;entryY=0;entryDx=0;entryDy=0;" edge="1" parent="1" target="BVpUQjcPfSpx3a0FSW65-73">
          <mxGeometry width="50" height="50" relative="1" as="geometry">
            <mxPoint x="840" y="320" as="sourcePoint" />
            <mxPoint x="1160" y="350" as="targetPoint" />
            <Array as="points">
              <mxPoint x="1120" y="320" />
            </Array>
          </mxGeometry>
        </mxCell>
        <mxCell id="BVpUQjcPfSpx3a0FSW65-87" value="" style="endArrow=classic;html=1;entryX=-0.006;entryY=-0.038;entryDx=0;entryDy=0;entryPerimeter=0;" edge="1" parent="1" target="BVpUQjcPfSpx3a0FSW65-84">
          <mxGeometry width="50" height="50" relative="1" as="geometry">
            <mxPoint x="270" y="350" as="sourcePoint" />
            <mxPoint x="300" y="600" as="targetPoint" />
            <Array as="points">
              <mxPoint x="270" y="625" />
            </Array>
          </mxGeometry>
        </mxCell>
        <mxCell id="BVpUQjcPfSpx3a0FSW65-88" value="" style="endArrow=classic;html=1;exitX=1;exitY=0.5;exitDx=0;exitDy=0;" edge="1" parent="1" source="BVpUQjcPfSpx3a0FSW65-84">
          <mxGeometry width="50" height="50" relative="1" as="geometry">
            <mxPoint x="510" y="680" as="sourcePoint" />
            <mxPoint x="520" y="380" as="targetPoint" />
            <Array as="points">
              <mxPoint x="520" y="639" />
            </Array>
          </mxGeometry>
        </mxCell>
        <mxCell id="yJipTLfowuC2AWkGN2Az-13" value="Add a new Value" style="swimlane;fontStyle=0;childLayout=stackLayout;horizontal=1;startSize=26;fillColor=none;horizontalStack=0;resizeParent=1;resizeParentMax=0;resizeLast=0;collapsible=1;marginBottom=0;" parent="1" vertex="1">
          <mxGeometry x="320" y="-800" width="180" height="130" as="geometry" />
        </mxCell>
        <mxCell id="yJipTLfowuC2AWkGN2Az-14" value="+ Application Nbr: int" style="text;strokeColor=none;fillColor=none;align=left;verticalAlign=top;spacingLeft=4;spacingRight=4;overflow=hidden;rotatable=0;points=[[0,0.5],[1,0.5]];portConstraint=eastwest;" parent="yJipTLfowuC2AWkGN2Az-13" vertex="1">
          <mxGeometry y="26" width="180" height="26" as="geometry" />
        </mxCell>
        <mxCell id="yJipTLfowuC2AWkGN2Az-15" value="+ ID : String" style="text;strokeColor=none;fillColor=none;align=left;verticalAlign=top;spacingLeft=4;spacingRight=4;overflow=hidden;rotatable=0;points=[[0,0.5],[1,0.5]];portConstraint=eastwest;" parent="yJipTLfowuC2AWkGN2Az-13" vertex="1">
          <mxGeometry y="52" width="180" height="26" as="geometry" />
        </mxCell>
        <mxCell id="yJipTLfowuC2AWkGN2Az-16" value="+ Academic Institution: String" style="text;strokeColor=none;fillColor=none;align=left;verticalAlign=top;spacingLeft=4;spacingRight=4;overflow=hidden;rotatable=0;points=[[0,0.5],[1,0.5]];portConstraint=eastwest;" parent="yJipTLfowuC2AWkGN2Az-13" vertex="1">
          <mxGeometry y="78" width="180" height="26" as="geometry" />
        </mxCell>
        <mxCell id="yJipTLfowuC2AWkGN2Az-17" value="+ Academic Career : String" style="text;strokeColor=none;fillColor=none;align=left;verticalAlign=top;spacingLeft=4;spacingRight=4;overflow=hidden;rotatable=0;points=[[0,0.5],[1,0.5]];portConstraint=eastwest;" parent="yJipTLfowuC2AWkGN2Az-13" vertex="1">
          <mxGeometry y="104" width="180" height="26" as="geometry" />
        </mxCell>
        <mxCell id="yJipTLfowuC2AWkGN2Az-19" value="Biographical Details" style="swimlane;fontStyle=0;childLayout=stackLayout;horizontal=1;startSize=30;fillColor=none;horizontalStack=0;resizeParent=1;resizeParentMax=0;resizeLast=0;collapsible=1;marginBottom=0;" parent="1" vertex="1">
          <mxGeometry x="560" y="-1000" width="160" height="448" as="geometry" />
        </mxCell>
        <mxCell id="yJipTLfowuC2AWkGN2Az-20" value="+ Prefix: String" style="text;strokeColor=none;fillColor=none;align=left;verticalAlign=top;spacingLeft=4;spacingRight=4;overflow=hidden;rotatable=0;points=[[0,0.5],[1,0.5]];portConstraint=eastwest;" parent="yJipTLfowuC2AWkGN2Az-19" vertex="1">
          <mxGeometry y="30" width="160" height="26" as="geometry" />
        </mxCell>
        <mxCell id="yJipTLfowuC2AWkGN2Az-21" value="+ First Name: String" style="text;strokeColor=none;fillColor=none;align=left;verticalAlign=top;spacingLeft=4;spacingRight=4;overflow=hidden;rotatable=0;points=[[0,0.5],[1,0.5]];portConstraint=eastwest;" parent="yJipTLfowuC2AWkGN2Az-19" vertex="1">
          <mxGeometry y="56" width="160" height="26" as="geometry" />
        </mxCell>
        <mxCell id="yJipTLfowuC2AWkGN2Az-36" value="+ Last Name: String " style="text;strokeColor=none;fillColor=none;align=left;verticalAlign=top;spacingLeft=4;spacingRight=4;overflow=hidden;rotatable=0;points=[[0,0.5],[1,0.5]];portConstraint=eastwest;" parent="yJipTLfowuC2AWkGN2Az-19" vertex="1">
          <mxGeometry y="82" width="160" height="22" as="geometry" />
        </mxCell>
        <mxCell id="yJipTLfowuC2AWkGN2Az-22" value="+ Middle Name: String" style="text;strokeColor=none;fillColor=none;align=left;verticalAlign=top;spacingLeft=4;spacingRight=4;overflow=hidden;rotatable=0;points=[[0,0.5],[1,0.5]];portConstraint=eastwest;" parent="yJipTLfowuC2AWkGN2Az-19" vertex="1">
          <mxGeometry y="104" width="160" height="26" as="geometry" />
        </mxCell>
        <mxCell id="yJipTLfowuC2AWkGN2Az-37" value="+ Suffix: String" style="text;strokeColor=none;fillColor=none;align=left;verticalAlign=top;spacingLeft=4;spacingRight=4;overflow=hidden;rotatable=0;points=[[0,0.5],[1,0.5]];portConstraint=eastwest;" parent="yJipTLfowuC2AWkGN2Az-19" vertex="1">
          <mxGeometry y="130" width="160" height="26" as="geometry" />
        </mxCell>
        <mxCell id="yJipTLfowuC2AWkGN2Az-38" value="+ Date Of Birth: DateTime " style="text;strokeColor=none;fillColor=none;align=left;verticalAlign=top;spacingLeft=4;spacingRight=4;overflow=hidden;rotatable=0;points=[[0,0.5],[1,0.5]];portConstraint=eastwest;" parent="yJipTLfowuC2AWkGN2Az-19" vertex="1">
          <mxGeometry y="156" width="160" height="24" as="geometry" />
        </mxCell>
        <mxCell id="yJipTLfowuC2AWkGN2Az-50" value="+ Martial Status: String" style="text;strokeColor=none;fillColor=none;align=left;verticalAlign=top;spacingLeft=4;spacingRight=4;overflow=hidden;rotatable=0;points=[[0,0.5],[1,0.5]];portConstraint=eastwest;" parent="yJipTLfowuC2AWkGN2Az-19" vertex="1">
          <mxGeometry y="180" width="160" height="60" as="geometry" />
        </mxCell>
        <mxCell id="yJipTLfowuC2AWkGN2Az-52" value="+ Country: String" style="text;strokeColor=none;fillColor=none;align=left;verticalAlign=top;spacingLeft=4;spacingRight=4;overflow=hidden;rotatable=0;points=[[0,0.5],[1,0.5]];portConstraint=eastwest;" parent="yJipTLfowuC2AWkGN2Az-19" vertex="1">
          <mxGeometry y="240" width="160" height="26" as="geometry" />
        </mxCell>
        <mxCell id="yJipTLfowuC2AWkGN2Az-53" value="+ National ID Type: String" style="text;strokeColor=none;fillColor=none;align=left;verticalAlign=top;spacingLeft=4;spacingRight=4;overflow=hidden;rotatable=0;points=[[0,0.5],[1,0.5]];portConstraint=eastwest;" parent="yJipTLfowuC2AWkGN2Az-19" vertex="1">
          <mxGeometry y="266" width="160" height="26" as="geometry" />
        </mxCell>
        <mxCell id="yJipTLfowuC2AWkGN2Az-54" value="+ National ID: int" style="text;strokeColor=none;fillColor=none;align=left;verticalAlign=top;spacingLeft=4;spacingRight=4;overflow=hidden;rotatable=0;points=[[0,0.5],[1,0.5]];portConstraint=eastwest;" parent="yJipTLfowuC2AWkGN2Az-19" vertex="1">
          <mxGeometry y="292" width="160" height="26" as="geometry" />
        </mxCell>
        <mxCell id="yJipTLfowuC2AWkGN2Az-66" value="+ Country: String" style="text;strokeColor=none;fillColor=none;align=left;verticalAlign=top;spacingLeft=4;spacingRight=4;overflow=hidden;rotatable=0;points=[[0,0.5],[1,0.5]];portConstraint=eastwest;" parent="yJipTLfowuC2AWkGN2Az-19" vertex="1">
          <mxGeometry y="318" width="160" height="26" as="geometry" />
        </mxCell>
        <mxCell id="yJipTLfowuC2AWkGN2Az-86" value="+ Phone Type: String" style="text;strokeColor=none;fillColor=none;align=left;verticalAlign=top;spacingLeft=4;spacingRight=4;overflow=hidden;rotatable=0;points=[[0,0.5],[1,0.5]];portConstraint=eastwest;" parent="yJipTLfowuC2AWkGN2Az-19" vertex="1">
          <mxGeometry y="344" width="160" height="26" as="geometry" />
        </mxCell>
        <mxCell id="yJipTLfowuC2AWkGN2Az-87" value="+ Phone Number: int" style="text;strokeColor=none;fillColor=none;align=left;verticalAlign=top;spacingLeft=4;spacingRight=4;overflow=hidden;rotatable=0;points=[[0,0.5],[1,0.5]];portConstraint=eastwest;" parent="yJipTLfowuC2AWkGN2Az-19" vertex="1">
          <mxGeometry y="370" width="160" height="26" as="geometry" />
        </mxCell>
        <mxCell id="yJipTLfowuC2AWkGN2Az-88" value="+ Email Type: String" style="text;strokeColor=none;fillColor=none;align=left;verticalAlign=top;spacingLeft=4;spacingRight=4;overflow=hidden;rotatable=0;points=[[0,0.5],[1,0.5]];portConstraint=eastwest;" parent="yJipTLfowuC2AWkGN2Az-19" vertex="1">
          <mxGeometry y="396" width="160" height="26" as="geometry" />
        </mxCell>
        <mxCell id="yJipTLfowuC2AWkGN2Az-89" value="+ Email Address: String" style="text;strokeColor=none;fillColor=none;align=left;verticalAlign=top;spacingLeft=4;spacingRight=4;overflow=hidden;rotatable=0;points=[[0,0.5],[1,0.5]];portConstraint=eastwest;" parent="yJipTLfowuC2AWkGN2Az-19" vertex="1">
          <mxGeometry y="422" width="160" height="26" as="geometry" />
        </mxCell>
        <mxCell id="yJipTLfowuC2AWkGN2Az-26" value="Application Program Data" style="swimlane;fontStyle=0;childLayout=stackLayout;horizontal=1;startSize=26;fillColor=none;horizontalStack=0;resizeParent=1;resizeParentMax=0;resizeLast=0;collapsible=1;marginBottom=0;" parent="1" vertex="1">
          <mxGeometry x="740" y="-1000" width="160" height="156" as="geometry" />
        </mxCell>
        <mxCell id="yJipTLfowuC2AWkGN2Az-27" value="+ Admit Term : int" style="text;strokeColor=none;fillColor=none;align=left;verticalAlign=top;spacingLeft=4;spacingRight=4;overflow=hidden;rotatable=0;points=[[0,0.5],[1,0.5]];portConstraint=eastwest;" parent="yJipTLfowuC2AWkGN2Az-26" vertex="1">
          <mxGeometry y="26" width="160" height="26" as="geometry" />
        </mxCell>
        <mxCell id="yJipTLfowuC2AWkGN2Az-28" value="+ Academic Program: String" style="text;strokeColor=none;fillColor=none;align=left;verticalAlign=top;spacingLeft=4;spacingRight=4;overflow=hidden;rotatable=0;points=[[0,0.5],[1,0.5]];portConstraint=eastwest;" parent="yJipTLfowuC2AWkGN2Az-26" vertex="1">
          <mxGeometry y="52" width="160" height="26" as="geometry" />
        </mxCell>
        <mxCell id="yJipTLfowuC2AWkGN2Az-29" value="+ Campus: String" style="text;strokeColor=none;fillColor=none;align=left;verticalAlign=top;spacingLeft=4;spacingRight=4;overflow=hidden;rotatable=0;points=[[0,0.5],[1,0.5]];portConstraint=eastwest;" parent="yJipTLfowuC2AWkGN2Az-26" vertex="1">
          <mxGeometry y="78" width="160" height="26" as="geometry" />
        </mxCell>
        <mxCell id="yJipTLfowuC2AWkGN2Az-90" value="+ Program Action: String" style="text;strokeColor=none;fillColor=none;align=left;verticalAlign=top;spacingLeft=4;spacingRight=4;overflow=hidden;rotatable=0;points=[[0,0.5],[1,0.5]];portConstraint=eastwest;" parent="yJipTLfowuC2AWkGN2Az-26" vertex="1">
          <mxGeometry y="104" width="160" height="26" as="geometry" />
        </mxCell>
        <mxCell id="yJipTLfowuC2AWkGN2Az-91" value="+ Academic Plan: String" style="text;strokeColor=none;fillColor=none;align=left;verticalAlign=top;spacingLeft=4;spacingRight=4;overflow=hidden;rotatable=0;points=[[0,0.5],[1,0.5]];portConstraint=eastwest;" parent="yJipTLfowuC2AWkGN2Az-26" vertex="1">
          <mxGeometry y="130" width="160" height="26" as="geometry" />
        </mxCell>
        <mxCell id="yJipTLfowuC2AWkGN2Az-45" value="Birth Information" style="swimlane;fontStyle=0;childLayout=stackLayout;horizontal=1;startSize=26;fillColor=none;horizontalStack=0;resizeParent=1;resizeParentMax=0;resizeLast=0;collapsible=1;marginBottom=0;" parent="1" vertex="1">
          <mxGeometry x="610" y="-544" width="140" height="104" as="geometry">
            <mxRectangle x="670" y="-90" width="120" height="26" as="alternateBounds" />
          </mxGeometry>
        </mxCell>
        <mxCell id="yJipTLfowuC2AWkGN2Az-46" value="+ Birth Location: Strng" style="text;strokeColor=none;fillColor=none;align=left;verticalAlign=top;spacingLeft=4;spacingRight=4;overflow=hidden;rotatable=0;points=[[0,0.5],[1,0.5]];portConstraint=eastwest;" parent="yJipTLfowuC2AWkGN2Az-45" vertex="1">
          <mxGeometry y="26" width="140" height="26" as="geometry" />
        </mxCell>
        <mxCell id="yJipTLfowuC2AWkGN2Az-47" value="+ Birth Country: String" style="text;strokeColor=none;fillColor=none;align=left;verticalAlign=top;spacingLeft=4;spacingRight=4;overflow=hidden;rotatable=0;points=[[0,0.5],[1,0.5]];portConstraint=eastwest;" parent="yJipTLfowuC2AWkGN2Az-45" vertex="1">
          <mxGeometry y="52" width="140" height="26" as="geometry" />
        </mxCell>
        <mxCell id="yJipTLfowuC2AWkGN2Az-48" value="+ Birth State: String" style="text;strokeColor=none;fillColor=none;align=left;verticalAlign=top;spacingLeft=4;spacingRight=4;overflow=hidden;rotatable=0;points=[[0,0.5],[1,0.5]];portConstraint=eastwest;" parent="yJipTLfowuC2AWkGN2Az-45" vertex="1">
          <mxGeometry y="78" width="140" height="26" as="geometry" />
        </mxCell>
        <mxCell id="yJipTLfowuC2AWkGN2Az-74" value="Address" style="swimlane;fontStyle=0;childLayout=stackLayout;horizontal=1;startSize=26;fillColor=none;horizontalStack=0;resizeParent=1;resizeParentMax=0;resizeLast=0;collapsible=1;marginBottom=0;" parent="1" vertex="1">
          <mxGeometry x="610" y="-414" width="140" height="234" as="geometry" />
        </mxCell>
        <mxCell id="yJipTLfowuC2AWkGN2Az-75" value="+ Address 1: String" style="text;strokeColor=none;fillColor=none;align=left;verticalAlign=top;spacingLeft=4;spacingRight=4;overflow=hidden;rotatable=0;points=[[0,0.5],[1,0.5]];portConstraint=eastwest;" parent="yJipTLfowuC2AWkGN2Az-74" vertex="1">
          <mxGeometry y="26" width="140" height="26" as="geometry" />
        </mxCell>
        <mxCell id="yJipTLfowuC2AWkGN2Az-85" value="+ Address 2: String" style="text;strokeColor=none;fillColor=none;align=left;verticalAlign=top;spacingLeft=4;spacingRight=4;overflow=hidden;rotatable=0;points=[[0,0.5],[1,0.5]];portConstraint=eastwest;" parent="yJipTLfowuC2AWkGN2Az-74" vertex="1">
          <mxGeometry y="52" width="140" height="26" as="geometry" />
        </mxCell>
        <mxCell id="yJipTLfowuC2AWkGN2Az-76" value="+ Address 2: String" style="text;strokeColor=none;fillColor=none;align=left;verticalAlign=top;spacingLeft=4;spacingRight=4;overflow=hidden;rotatable=0;points=[[0,0.5],[1,0.5]];portConstraint=eastwest;" parent="yJipTLfowuC2AWkGN2Az-74" vertex="1">
          <mxGeometry y="78" width="140" height="26" as="geometry" />
        </mxCell>
        <mxCell id="yJipTLfowuC2AWkGN2Az-77" value="+ Address 3: String" style="text;strokeColor=none;fillColor=none;align=left;verticalAlign=top;spacingLeft=4;spacingRight=4;overflow=hidden;rotatable=0;points=[[0,0.5],[1,0.5]];portConstraint=eastwest;" parent="yJipTLfowuC2AWkGN2Az-74" vertex="1">
          <mxGeometry y="104" width="140" height="26" as="geometry" />
        </mxCell>
        <mxCell id="yJipTLfowuC2AWkGN2Az-78" value="+ Address 4: String" style="text;strokeColor=none;fillColor=none;align=left;verticalAlign=top;spacingLeft=4;spacingRight=4;overflow=hidden;rotatable=0;points=[[0,0.5],[1,0.5]];portConstraint=eastwest;" parent="yJipTLfowuC2AWkGN2Az-74" vertex="1">
          <mxGeometry y="130" width="140" height="26" as="geometry" />
        </mxCell>
        <mxCell id="yJipTLfowuC2AWkGN2Az-82" value="+ City: String" style="text;strokeColor=none;fillColor=none;align=left;verticalAlign=top;spacingLeft=4;spacingRight=4;overflow=hidden;rotatable=0;points=[[0,0.5],[1,0.5]];portConstraint=eastwest;" parent="yJipTLfowuC2AWkGN2Az-74" vertex="1">
          <mxGeometry y="156" width="140" height="26" as="geometry" />
        </mxCell>
        <mxCell id="yJipTLfowuC2AWkGN2Az-83" value="+ State: String" style="text;strokeColor=none;fillColor=none;align=left;verticalAlign=top;spacingLeft=4;spacingRight=4;overflow=hidden;rotatable=0;points=[[0,0.5],[1,0.5]];portConstraint=eastwest;" parent="yJipTLfowuC2AWkGN2Az-74" vertex="1">
          <mxGeometry y="182" width="140" height="26" as="geometry" />
        </mxCell>
        <mxCell id="yJipTLfowuC2AWkGN2Az-84" value="+ Postal" style="text;strokeColor=none;fillColor=none;align=left;verticalAlign=top;spacingLeft=4;spacingRight=4;overflow=hidden;rotatable=0;points=[[0,0.5],[1,0.5]];portConstraint=eastwest;" parent="yJipTLfowuC2AWkGN2Az-74" vertex="1">
          <mxGeometry y="208" width="140" height="26" as="geometry" />
        </mxCell>
        <mxCell id="yJipTLfowuC2AWkGN2Az-31" value="Application Data" style="swimlane;fontStyle=0;childLayout=stackLayout;horizontal=1;startSize=26;fillColor=none;horizontalStack=0;resizeParent=1;resizeParentMax=0;resizeLast=0;collapsible=1;marginBottom=0;" parent="1" vertex="1">
          <mxGeometry x="920" y="-1000" width="160" height="104" as="geometry" />
        </mxCell>
        <mxCell id="yJipTLfowuC2AWkGN2Az-32" value="+ Application Center: int" style="text;strokeColor=none;fillColor=none;align=left;verticalAlign=top;spacingLeft=4;spacingRight=4;overflow=hidden;rotatable=0;points=[[0,0.5],[1,0.5]];portConstraint=eastwest;" parent="yJipTLfowuC2AWkGN2Az-31" vertex="1">
          <mxGeometry y="26" width="160" height="26" as="geometry" />
        </mxCell>
        <mxCell id="yJipTLfowuC2AWkGN2Az-33" value="+ Admit Type: String" style="text;strokeColor=none;fillColor=none;align=left;verticalAlign=top;spacingLeft=4;spacingRight=4;overflow=hidden;rotatable=0;points=[[0,0.5],[1,0.5]];portConstraint=eastwest;" parent="yJipTLfowuC2AWkGN2Az-31" vertex="1">
          <mxGeometry y="52" width="160" height="26" as="geometry" />
        </mxCell>
        <mxCell id="yJipTLfowuC2AWkGN2Az-34" value="+ Academic Level: String" style="text;strokeColor=none;fillColor=none;align=left;verticalAlign=top;spacingLeft=4;spacingRight=4;overflow=hidden;rotatable=0;points=[[0,0.5],[1,0.5]];portConstraint=eastwest;" parent="yJipTLfowuC2AWkGN2Az-31" vertex="1">
          <mxGeometry y="78" width="160" height="26" as="geometry" />
        </mxCell>
        <mxCell id="BVpUQjcPfSpx3a0FSW65-3" value="Education" style="swimlane;fontStyle=0;childLayout=stackLayout;horizontal=1;startSize=26;fillColor=none;horizontalStack=0;resizeParent=1;resizeParentMax=0;resizeLast=0;collapsible=1;marginBottom=0;" vertex="1" parent="1">
          <mxGeometry x="320" y="-70" width="180" height="130" as="geometry" />
        </mxCell>
        <mxCell id="BVpUQjcPfSpx3a0FSW65-4" value="+ Application Number: int" style="text;strokeColor=none;fillColor=none;align=left;verticalAlign=top;spacingLeft=4;spacingRight=4;overflow=hidden;rotatable=0;points=[[0,0.5],[1,0.5]];portConstraint=eastwest;" vertex="1" parent="BVpUQjcPfSpx3a0FSW65-3">
          <mxGeometry y="26" width="180" height="26" as="geometry" />
        </mxCell>
        <mxCell id="BVpUQjcPfSpx3a0FSW65-5" value="+ ID : int" style="text;strokeColor=none;fillColor=none;align=left;verticalAlign=top;spacingLeft=4;spacingRight=4;overflow=hidden;rotatable=0;points=[[0,0.5],[1,0.5]];portConstraint=eastwest;" vertex="1" parent="BVpUQjcPfSpx3a0FSW65-3">
          <mxGeometry y="52" width="180" height="26" as="geometry" />
        </mxCell>
        <mxCell id="BVpUQjcPfSpx3a0FSW65-6" value="+ Last Name: String" style="text;strokeColor=none;fillColor=none;align=left;verticalAlign=top;spacingLeft=4;spacingRight=4;overflow=hidden;rotatable=0;points=[[0,0.5],[1,0.5]];portConstraint=eastwest;" vertex="1" parent="BVpUQjcPfSpx3a0FSW65-3">
          <mxGeometry y="78" width="180" height="26" as="geometry" />
        </mxCell>
        <mxCell id="BVpUQjcPfSpx3a0FSW65-7" value="+ First Name: String" style="text;strokeColor=none;fillColor=none;align=left;verticalAlign=top;spacingLeft=4;spacingRight=4;overflow=hidden;rotatable=0;points=[[0,0.5],[1,0.5]];portConstraint=eastwest;" vertex="1" parent="BVpUQjcPfSpx3a0FSW65-3">
          <mxGeometry y="104" width="180" height="26" as="geometry" />
        </mxCell>
        <mxCell id="BVpUQjcPfSpx3a0FSW65-9" value="External Education" style="swimlane;fontStyle=0;childLayout=stackLayout;horizontal=1;startSize=26;fillColor=none;horizontalStack=0;resizeParent=1;resizeParentMax=0;resizeLast=0;collapsible=1;marginBottom=0;" vertex="1" parent="1">
          <mxGeometry x="600" y="-70" width="180" height="234" as="geometry" />
        </mxCell>
        <mxCell id="BVpUQjcPfSpx3a0FSW65-10" value="+ External Org ID: int" style="text;strokeColor=none;fillColor=none;align=left;verticalAlign=top;spacingLeft=4;spacingRight=4;overflow=hidden;rotatable=0;points=[[0,0.5],[1,0.5]];portConstraint=eastwest;" vertex="1" parent="BVpUQjcPfSpx3a0FSW65-9">
          <mxGeometry y="26" width="180" height="26" as="geometry" />
        </mxCell>
        <mxCell id="BVpUQjcPfSpx3a0FSW65-11" value="+ Term Type: String" style="text;strokeColor=none;fillColor=none;align=left;verticalAlign=top;spacingLeft=4;spacingRight=4;overflow=hidden;rotatable=0;points=[[0,0.5],[1,0.5]];portConstraint=eastwest;" vertex="1" parent="BVpUQjcPfSpx3a0FSW65-9">
          <mxGeometry y="52" width="180" height="26" as="geometry" />
        </mxCell>
        <mxCell id="BVpUQjcPfSpx3a0FSW65-12" value="+ Term Year: int" style="text;strokeColor=none;fillColor=none;align=left;verticalAlign=top;spacingLeft=4;spacingRight=4;overflow=hidden;rotatable=0;points=[[0,0.5],[1,0.5]];portConstraint=eastwest;" vertex="1" parent="BVpUQjcPfSpx3a0FSW65-9">
          <mxGeometry y="78" width="180" height="26" as="geometry" />
        </mxCell>
        <mxCell id="BVpUQjcPfSpx3a0FSW65-13" value="+ From Date: DateTime" style="text;strokeColor=none;fillColor=none;align=left;verticalAlign=top;spacingLeft=4;spacingRight=4;overflow=hidden;rotatable=0;points=[[0,0.5],[1,0.5]];portConstraint=eastwest;" vertex="1" parent="BVpUQjcPfSpx3a0FSW65-9">
          <mxGeometry y="104" width="180" height="26" as="geometry" />
        </mxCell>
        <mxCell id="BVpUQjcPfSpx3a0FSW65-22" value="+ To Date: DateTime" style="text;strokeColor=none;fillColor=none;align=left;verticalAlign=top;spacingLeft=4;spacingRight=4;overflow=hidden;rotatable=0;points=[[0,0.5],[1,0.5]];portConstraint=eastwest;" vertex="1" parent="BVpUQjcPfSpx3a0FSW65-9">
          <mxGeometry y="130" width="180" height="26" as="geometry" />
        </mxCell>
        <mxCell id="BVpUQjcPfSpx3a0FSW65-23" value="+ Career: String" style="text;strokeColor=none;fillColor=none;align=left;verticalAlign=top;spacingLeft=4;spacingRight=4;overflow=hidden;rotatable=0;points=[[0,0.5],[1,0.5]];portConstraint=eastwest;" vertex="1" parent="BVpUQjcPfSpx3a0FSW65-9">
          <mxGeometry y="156" width="180" height="26" as="geometry" />
        </mxCell>
        <mxCell id="BVpUQjcPfSpx3a0FSW65-24" value="+ External Term: String" style="text;strokeColor=none;fillColor=none;align=left;verticalAlign=top;spacingLeft=4;spacingRight=4;overflow=hidden;rotatable=0;points=[[0,0.5],[1,0.5]];portConstraint=eastwest;" vertex="1" parent="BVpUQjcPfSpx3a0FSW65-9">
          <mxGeometry y="182" width="180" height="26" as="geometry" />
        </mxCell>
        <mxCell id="BVpUQjcPfSpx3a0FSW65-25" value="+ Academic Level: String" style="text;strokeColor=none;fillColor=none;align=left;verticalAlign=top;spacingLeft=4;spacingRight=4;overflow=hidden;rotatable=0;points=[[0,0.5],[1,0.5]];portConstraint=eastwest;" vertex="1" parent="BVpUQjcPfSpx3a0FSW65-9">
          <mxGeometry y="208" width="180" height="26" as="geometry" />
        </mxCell>
        <mxCell id="BVpUQjcPfSpx3a0FSW65-17" value="Courses and Degrees" style="swimlane;fontStyle=0;childLayout=stackLayout;horizontal=1;startSize=26;fillColor=none;horizontalStack=0;resizeParent=1;resizeParentMax=0;resizeLast=0;collapsible=1;marginBottom=0;" vertex="1" parent="1">
          <mxGeometry x="850" y="-70" width="180" height="338" as="geometry" />
        </mxCell>
        <mxCell id="BVpUQjcPfSpx3a0FSW65-18" value="+ Data Number: int" style="text;strokeColor=none;fillColor=none;align=left;verticalAlign=top;spacingLeft=4;spacingRight=4;overflow=hidden;rotatable=0;points=[[0,0.5],[1,0.5]];portConstraint=eastwest;" vertex="1" parent="BVpUQjcPfSpx3a0FSW65-17">
          <mxGeometry y="26" width="180" height="26" as="geometry" />
        </mxCell>
        <mxCell id="BVpUQjcPfSpx3a0FSW65-19" value="+ Data Source: String" style="text;strokeColor=none;fillColor=none;align=left;verticalAlign=top;spacingLeft=4;spacingRight=4;overflow=hidden;rotatable=0;points=[[0,0.5],[1,0.5]];portConstraint=eastwest;" vertex="1" parent="BVpUQjcPfSpx3a0FSW65-17">
          <mxGeometry y="52" width="180" height="26" as="geometry" />
        </mxCell>
        <mxCell id="BVpUQjcPfSpx3a0FSW65-20" value="+ Acad Level: String" style="text;strokeColor=none;fillColor=none;align=left;verticalAlign=top;spacingLeft=4;spacingRight=4;overflow=hidden;rotatable=0;points=[[0,0.5],[1,0.5]];portConstraint=eastwest;" vertex="1" parent="BVpUQjcPfSpx3a0FSW65-17">
          <mxGeometry y="78" width="180" height="26" as="geometry" />
        </mxCell>
        <mxCell id="BVpUQjcPfSpx3a0FSW65-21" value="+ Institution: STI" style="text;strokeColor=none;fillColor=none;align=left;verticalAlign=top;spacingLeft=4;spacingRight=4;overflow=hidden;rotatable=0;points=[[0,0.5],[1,0.5]];portConstraint=eastwest;" vertex="1" parent="BVpUQjcPfSpx3a0FSW65-17">
          <mxGeometry y="104" width="180" height="26" as="geometry" />
        </mxCell>
        <mxCell id="BVpUQjcPfSpx3a0FSW65-26" value="+ Course Type: String" style="text;strokeColor=none;fillColor=none;align=left;verticalAlign=top;spacingLeft=4;spacingRight=4;overflow=hidden;rotatable=0;points=[[0,0.5],[1,0.5]];portConstraint=eastwest;" vertex="1" parent="BVpUQjcPfSpx3a0FSW65-17">
          <mxGeometry y="130" width="180" height="26" as="geometry" />
        </mxCell>
        <mxCell id="BVpUQjcPfSpx3a0FSW65-27" value="+ Unit Type: String" style="text;strokeColor=none;fillColor=none;align=left;verticalAlign=top;spacingLeft=4;spacingRight=4;overflow=hidden;rotatable=0;points=[[0,0.5],[1,0.5]];portConstraint=eastwest;" vertex="1" parent="BVpUQjcPfSpx3a0FSW65-17">
          <mxGeometry y="156" width="180" height="26" as="geometry" />
        </mxCell>
        <mxCell id="BVpUQjcPfSpx3a0FSW65-28" value="+ Grading Scheme: String" style="text;strokeColor=none;fillColor=none;align=left;verticalAlign=top;spacingLeft=4;spacingRight=4;overflow=hidden;rotatable=0;points=[[0,0.5],[1,0.5]];portConstraint=eastwest;" vertex="1" parent="BVpUQjcPfSpx3a0FSW65-17">
          <mxGeometry y="182" width="180" height="26" as="geometry" />
        </mxCell>
        <mxCell id="BVpUQjcPfSpx3a0FSW65-30" value="+ External Career: String" style="text;strokeColor=none;fillColor=none;align=left;verticalAlign=top;spacingLeft=4;spacingRight=4;overflow=hidden;rotatable=0;points=[[0,0.5],[1,0.5]];portConstraint=eastwest;" vertex="1" parent="BVpUQjcPfSpx3a0FSW65-17">
          <mxGeometry y="208" width="180" height="26" as="geometry" />
        </mxCell>
        <mxCell id="BVpUQjcPfSpx3a0FSW65-31" value="+ Term Type: String" style="text;strokeColor=none;fillColor=none;align=left;verticalAlign=top;spacingLeft=4;spacingRight=4;overflow=hidden;rotatable=0;points=[[0,0.5],[1,0.5]];portConstraint=eastwest;" vertex="1" parent="BVpUQjcPfSpx3a0FSW65-17">
          <mxGeometry y="234" width="180" height="26" as="geometry" />
        </mxCell>
        <mxCell id="BVpUQjcPfSpx3a0FSW65-32" value="+ Begin Date: DateTime" style="text;strokeColor=none;fillColor=none;align=left;verticalAlign=top;spacingLeft=4;spacingRight=4;overflow=hidden;rotatable=0;points=[[0,0.5],[1,0.5]];portConstraint=eastwest;" vertex="1" parent="BVpUQjcPfSpx3a0FSW65-17">
          <mxGeometry y="260" width="180" height="26" as="geometry" />
        </mxCell>
        <mxCell id="BVpUQjcPfSpx3a0FSW65-33" value="+ End Date: DateTime" style="text;strokeColor=none;fillColor=none;align=left;verticalAlign=top;spacingLeft=4;spacingRight=4;overflow=hidden;rotatable=0;points=[[0,0.5],[1,0.5]];portConstraint=eastwest;" vertex="1" parent="BVpUQjcPfSpx3a0FSW65-17">
          <mxGeometry y="286" width="180" height="26" as="geometry" />
        </mxCell>
        <mxCell id="BVpUQjcPfSpx3a0FSW65-34" value="+ Course Level: String" style="text;strokeColor=none;fillColor=none;align=left;verticalAlign=top;spacingLeft=4;spacingRight=4;overflow=hidden;rotatable=0;points=[[0,0.5],[1,0.5]];portConstraint=eastwest;" vertex="1" parent="BVpUQjcPfSpx3a0FSW65-17">
          <mxGeometry y="312" width="180" height="26" as="geometry" />
        </mxCell>
        <mxCell id="BVpUQjcPfSpx3a0FSW65-37" value="Add a new value" style="swimlane;fontStyle=0;childLayout=stackLayout;horizontal=1;startSize=26;fillColor=none;horizontalStack=0;resizeParent=1;resizeParentMax=0;resizeLast=0;collapsible=1;marginBottom=0;" vertex="1" parent="1">
          <mxGeometry x="310" y="330" width="180" height="104" as="geometry" />
        </mxCell>
        <mxCell id="BVpUQjcPfSpx3a0FSW65-38" value="+ ID : int" style="text;strokeColor=none;fillColor=none;align=left;verticalAlign=top;spacingLeft=4;spacingRight=4;overflow=hidden;rotatable=0;points=[[0,0.5],[1,0.5]];portConstraint=eastwest;" vertex="1" parent="BVpUQjcPfSpx3a0FSW65-37">
          <mxGeometry y="26" width="180" height="26" as="geometry" />
        </mxCell>
        <mxCell id="BVpUQjcPfSpx3a0FSW65-39" value="+ Academic institution : String" style="text;strokeColor=none;fillColor=none;align=left;verticalAlign=top;spacingLeft=4;spacingRight=4;overflow=hidden;rotatable=0;points=[[0,0.5],[1,0.5]];portConstraint=eastwest;" vertex="1" parent="BVpUQjcPfSpx3a0FSW65-37">
          <mxGeometry y="52" width="180" height="26" as="geometry" />
        </mxCell>
        <mxCell id="BVpUQjcPfSpx3a0FSW65-40" value="+ Academic Career: String" style="text;strokeColor=none;fillColor=none;align=left;verticalAlign=top;spacingLeft=4;spacingRight=4;overflow=hidden;rotatable=0;points=[[0,0.5],[1,0.5]];portConstraint=eastwest;" vertex="1" parent="BVpUQjcPfSpx3a0FSW65-37">
          <mxGeometry y="78" width="180" height="26" as="geometry" />
        </mxCell>
        <mxCell id="BVpUQjcPfSpx3a0FSW65-44" value="Relationships" style="swimlane;fontStyle=0;childLayout=stackLayout;horizontal=1;startSize=26;fillColor=none;horizontalStack=0;resizeParent=1;resizeParentMax=0;resizeLast=0;collapsible=1;marginBottom=0;" vertex="1" parent="1">
          <mxGeometry x="570" y="360" width="180" height="208" as="geometry" />
        </mxCell>
        <mxCell id="BVpUQjcPfSpx3a0FSW65-45" value="+ Name: String" style="text;strokeColor=none;fillColor=none;align=left;verticalAlign=top;spacingLeft=4;spacingRight=4;overflow=hidden;rotatable=0;points=[[0,0.5],[1,0.5]];portConstraint=eastwest;" vertex="1" parent="BVpUQjcPfSpx3a0FSW65-44">
          <mxGeometry y="26" width="180" height="26" as="geometry" />
        </mxCell>
        <mxCell id="BVpUQjcPfSpx3a0FSW65-46" value="+ Relationship: String" style="text;strokeColor=none;fillColor=none;align=left;verticalAlign=top;spacingLeft=4;spacingRight=4;overflow=hidden;rotatable=0;points=[[0,0.5],[1,0.5]];portConstraint=eastwest;" vertex="1" parent="BVpUQjcPfSpx3a0FSW65-44">
          <mxGeometry y="52" width="180" height="26" as="geometry" />
        </mxCell>
        <mxCell id="BVpUQjcPfSpx3a0FSW65-47" value="+ Prefix: String" style="text;strokeColor=none;fillColor=none;align=left;verticalAlign=top;spacingLeft=4;spacingRight=4;overflow=hidden;rotatable=0;points=[[0,0.5],[1,0.5]];portConstraint=eastwest;" vertex="1" parent="BVpUQjcPfSpx3a0FSW65-44">
          <mxGeometry y="78" width="180" height="26" as="geometry" />
        </mxCell>
        <mxCell id="BVpUQjcPfSpx3a0FSW65-48" value="+ Suffix: String" style="text;strokeColor=none;fillColor=none;align=left;verticalAlign=top;spacingLeft=4;spacingRight=4;overflow=hidden;rotatable=0;points=[[0,0.5],[1,0.5]];portConstraint=eastwest;" vertex="1" parent="BVpUQjcPfSpx3a0FSW65-44">
          <mxGeometry y="104" width="180" height="26" as="geometry" />
        </mxCell>
        <mxCell id="BVpUQjcPfSpx3a0FSW65-49" value="+ Sex: String" style="text;strokeColor=none;fillColor=none;align=left;verticalAlign=top;spacingLeft=4;spacingRight=4;overflow=hidden;rotatable=0;points=[[0,0.5],[1,0.5]];portConstraint=eastwest;" vertex="1" parent="BVpUQjcPfSpx3a0FSW65-44">
          <mxGeometry y="130" width="180" height="26" as="geometry" />
        </mxCell>
        <mxCell id="BVpUQjcPfSpx3a0FSW65-50" value="+ Martial Status: String" style="text;strokeColor=none;fillColor=none;align=left;verticalAlign=top;spacingLeft=4;spacingRight=4;overflow=hidden;rotatable=0;points=[[0,0.5],[1,0.5]];portConstraint=eastwest;" vertex="1" parent="BVpUQjcPfSpx3a0FSW65-44">
          <mxGeometry y="156" width="180" height="26" as="geometry" />
        </mxCell>
        <mxCell id="BVpUQjcPfSpx3a0FSW65-52" value="+ Guardian: String" style="text;strokeColor=none;fillColor=none;align=left;verticalAlign=top;spacingLeft=4;spacingRight=4;overflow=hidden;rotatable=0;points=[[0,0.5],[1,0.5]];portConstraint=eastwest;" vertex="1" parent="BVpUQjcPfSpx3a0FSW65-44">
          <mxGeometry y="182" width="180" height="26" as="geometry" />
        </mxCell>
        <mxCell id="BVpUQjcPfSpx3a0FSW65-54" value="Relationship Address" style="swimlane;fontStyle=0;childLayout=stackLayout;horizontal=1;startSize=26;fillColor=none;horizontalStack=0;resizeParent=1;resizeParentMax=0;resizeLast=0;collapsible=1;marginBottom=0;" vertex="1" parent="1">
          <mxGeometry x="760" y="360" width="180" height="78" as="geometry" />
        </mxCell>
        <mxCell id="BVpUQjcPfSpx3a0FSW65-55" value="+ Country: String" style="text;strokeColor=none;fillColor=none;align=left;verticalAlign=top;spacingLeft=4;spacingRight=4;overflow=hidden;rotatable=0;points=[[0,0.5],[1,0.5]];portConstraint=eastwest;" vertex="1" parent="BVpUQjcPfSpx3a0FSW65-54">
          <mxGeometry y="26" width="180" height="26" as="geometry" />
        </mxCell>
        <mxCell id="BVpUQjcPfSpx3a0FSW65-56" value="+ Email Address: String" style="text;strokeColor=none;fillColor=none;align=left;verticalAlign=top;spacingLeft=4;spacingRight=4;overflow=hidden;rotatable=0;points=[[0,0.5],[1,0.5]];portConstraint=eastwest;" vertex="1" parent="BVpUQjcPfSpx3a0FSW65-54">
          <mxGeometry y="52" width="180" height="26" as="geometry" />
        </mxCell>
        <mxCell id="BVpUQjcPfSpx3a0FSW65-63" value="Address" style="swimlane;fontStyle=0;childLayout=stackLayout;horizontal=1;startSize=26;fillColor=none;horizontalStack=0;resizeParent=1;resizeParentMax=0;resizeLast=0;collapsible=1;marginBottom=0;" vertex="1" parent="1">
          <mxGeometry x="860" y="460" width="140" height="234" as="geometry" />
        </mxCell>
        <mxCell id="BVpUQjcPfSpx3a0FSW65-64" value="+ Address 1: String" style="text;strokeColor=none;fillColor=none;align=left;verticalAlign=top;spacingLeft=4;spacingRight=4;overflow=hidden;rotatable=0;points=[[0,0.5],[1,0.5]];portConstraint=eastwest;" vertex="1" parent="BVpUQjcPfSpx3a0FSW65-63">
          <mxGeometry y="26" width="140" height="26" as="geometry" />
        </mxCell>
        <mxCell id="BVpUQjcPfSpx3a0FSW65-65" value="+ Address 2: String" style="text;strokeColor=none;fillColor=none;align=left;verticalAlign=top;spacingLeft=4;spacingRight=4;overflow=hidden;rotatable=0;points=[[0,0.5],[1,0.5]];portConstraint=eastwest;" vertex="1" parent="BVpUQjcPfSpx3a0FSW65-63">
          <mxGeometry y="52" width="140" height="26" as="geometry" />
        </mxCell>
        <mxCell id="BVpUQjcPfSpx3a0FSW65-66" value="+ Address 2: String" style="text;strokeColor=none;fillColor=none;align=left;verticalAlign=top;spacingLeft=4;spacingRight=4;overflow=hidden;rotatable=0;points=[[0,0.5],[1,0.5]];portConstraint=eastwest;" vertex="1" parent="BVpUQjcPfSpx3a0FSW65-63">
          <mxGeometry y="78" width="140" height="26" as="geometry" />
        </mxCell>
        <mxCell id="BVpUQjcPfSpx3a0FSW65-67" value="+ Address 3: String" style="text;strokeColor=none;fillColor=none;align=left;verticalAlign=top;spacingLeft=4;spacingRight=4;overflow=hidden;rotatable=0;points=[[0,0.5],[1,0.5]];portConstraint=eastwest;" vertex="1" parent="BVpUQjcPfSpx3a0FSW65-63">
          <mxGeometry y="104" width="140" height="26" as="geometry" />
        </mxCell>
        <mxCell id="BVpUQjcPfSpx3a0FSW65-68" value="+ Address 4: String" style="text;strokeColor=none;fillColor=none;align=left;verticalAlign=top;spacingLeft=4;spacingRight=4;overflow=hidden;rotatable=0;points=[[0,0.5],[1,0.5]];portConstraint=eastwest;" vertex="1" parent="BVpUQjcPfSpx3a0FSW65-63">
          <mxGeometry y="130" width="140" height="26" as="geometry" />
        </mxCell>
        <mxCell id="BVpUQjcPfSpx3a0FSW65-69" value="+ City: String" style="text;strokeColor=none;fillColor=none;align=left;verticalAlign=top;spacingLeft=4;spacingRight=4;overflow=hidden;rotatable=0;points=[[0,0.5],[1,0.5]];portConstraint=eastwest;" vertex="1" parent="BVpUQjcPfSpx3a0FSW65-63">
          <mxGeometry y="156" width="140" height="26" as="geometry" />
        </mxCell>
        <mxCell id="BVpUQjcPfSpx3a0FSW65-70" value="+ State: String" style="text;strokeColor=none;fillColor=none;align=left;verticalAlign=top;spacingLeft=4;spacingRight=4;overflow=hidden;rotatable=0;points=[[0,0.5],[1,0.5]];portConstraint=eastwest;" vertex="1" parent="BVpUQjcPfSpx3a0FSW65-63">
          <mxGeometry y="182" width="140" height="26" as="geometry" />
        </mxCell>
        <mxCell id="BVpUQjcPfSpx3a0FSW65-71" value="+ Postal" style="text;strokeColor=none;fillColor=none;align=left;verticalAlign=top;spacingLeft=4;spacingRight=4;overflow=hidden;rotatable=0;points=[[0,0.5],[1,0.5]];portConstraint=eastwest;" vertex="1" parent="BVpUQjcPfSpx3a0FSW65-63">
          <mxGeometry y="208" width="140" height="26" as="geometry" />
        </mxCell>
        <mxCell id="BVpUQjcPfSpx3a0FSW65-73" value="Relatinship Detail" style="swimlane;fontStyle=0;childLayout=stackLayout;horizontal=1;startSize=26;fillColor=none;horizontalStack=0;resizeParent=1;resizeParentMax=0;resizeLast=0;collapsible=1;marginBottom=0;" vertex="1" parent="1">
          <mxGeometry x="1030" y="360" width="180" height="78" as="geometry" />
        </mxCell>
        <mxCell id="BVpUQjcPfSpx3a0FSW65-74" value="+ Day Telephone: int" style="text;strokeColor=none;fillColor=none;align=left;verticalAlign=top;spacingLeft=4;spacingRight=4;overflow=hidden;rotatable=0;points=[[0,0.5],[1,0.5]];portConstraint=eastwest;" vertex="1" parent="BVpUQjcPfSpx3a0FSW65-73">
          <mxGeometry y="26" width="180" height="26" as="geometry" />
        </mxCell>
        <mxCell id="BVpUQjcPfSpx3a0FSW65-75" value="+ Eve Telephone: int" style="text;strokeColor=none;fillColor=none;align=left;verticalAlign=top;spacingLeft=4;spacingRight=4;overflow=hidden;rotatable=0;points=[[0,0.5],[1,0.5]];portConstraint=eastwest;" vertex="1" parent="BVpUQjcPfSpx3a0FSW65-73">
          <mxGeometry y="52" width="180" height="26" as="geometry" />
        </mxCell>
        <mxCell id="BVpUQjcPfSpx3a0FSW65-83" value="Find an existing value" style="swimlane;fontStyle=0;childLayout=stackLayout;horizontal=1;startSize=26;fillColor=none;horizontalStack=0;resizeParent=1;resizeParentMax=0;resizeLast=0;collapsible=1;marginBottom=0;" vertex="1" parent="1">
          <mxGeometry x="310" y="600" width="180" height="104" as="geometry" />
        </mxCell>
        <mxCell id="BVpUQjcPfSpx3a0FSW65-84" value="+ EmplID : int" style="text;strokeColor=none;fillColor=none;align=left;verticalAlign=top;spacingLeft=4;spacingRight=4;overflow=hidden;rotatable=0;points=[[0,0.5],[1,0.5]];portConstraint=eastwest;" vertex="1" parent="BVpUQjcPfSpx3a0FSW65-83">
          <mxGeometry y="26" width="180" height="26" as="geometry" />
        </mxCell>
        <mxCell id="BVpUQjcPfSpx3a0FSW65-85" value="+ Last name: String" style="text;strokeColor=none;fillColor=none;align=left;verticalAlign=top;spacingLeft=4;spacingRight=4;overflow=hidden;rotatable=0;points=[[0,0.5],[1,0.5]];portConstraint=eastwest;" vertex="1" parent="BVpUQjcPfSpx3a0FSW65-83">
          <mxGeometry y="52" width="180" height="26" as="geometry" />
        </mxCell>
        <mxCell id="BVpUQjcPfSpx3a0FSW65-86" value="+ First name: String" style="text;strokeColor=none;fillColor=none;align=left;verticalAlign=top;spacingLeft=4;spacingRight=4;overflow=hidden;rotatable=0;points=[[0,0.5],[1,0.5]];portConstraint=eastwest;" vertex="1" parent="BVpUQjcPfSpx3a0FSW65-83">
          <mxGeometry y="78" width="180" height="26" as="geometry" />
        </mxCell>
      </root>
    </mxGraphModel>
  </diagram>
</mxfile>
